<?xml version="1.0" standalone="no"?>
<!DOCTYPE svg PUBLIC "-//W3C//DTD SVG 20010904//EN"
 "http://www.w3.org/TR/2001/REC-SVG-20010904/DTD/svg10.dtd">
<svg version="1.0" xmlns="http://www.w3.org/2000/svg"
 width="512.000000pt" height="512.000000pt" viewBox="0 0 512.000000 512.000000"
 preserveAspectRatio="xMidYMid meet">

<g transform="translate(0.000000,512.000000) scale(0.100000,-0.100000)"
fill="#000000" stroke="none">
<path d="M2395 5084 c-331 -33 -565 -89 -820 -195 -147 -61 -214 -97 -385
-208 -295 -190 -560 -451 -745 -731 -90 -136 -217 -388 -271 -537 -39 -109
-96 -327 -119 -458 -29 -163 -37 -434 -20 -612 18 -174 33 -291 40 -302 2 -4
13 -49 24 -100 25 -112 89 -302 147 -433 45 -103 154 -298 187 -335 11 -12 34
-45 51 -72 99 -158 366 -440 541 -572 344 -258 752 -429 1167 -490 213 -31
555 -28 753 6 82 14 140 29 375 96 369 106 778 358 1060 656 383 404 617 900
692 1463 16 121 16 466 0 590 -51 389 -195 785 -397 1090 -470 707 -1224 1125
-2070 1144 -93 2 -188 2 -210 0z m-788 -1260 c-3 -3 -12 -4 -19 -1 -8 3 -5 6
6 6 11 1 17 -2 13 -5z m276 -1 c-7 -2 -19 -2 -25 0 -7 3 -2 5 12 5 14 0 19 -2
13 -5z m160 0 c-7 -2 -19 -2 -25 0 -7 3 -2 5 12 5 14 0 19 -2 13 -5z m105 0
c-10 -2 -26 -2 -35 0 -10 3 -2 5 17 5 19 0 27 -2 18 -5z m270 0 c-10 -2 -26
-2 -35 0 -10 3 -2 5 17 5 19 0 27 -2 18 -5z m175 0 c-7 -2 -21 -2 -30 0 -10 3
-4 5 12 5 17 0 24 -2 18 -5z m105 0 c-10 -2 -28 -2 -40 0 -13 2 -5 4 17 4 22
1 32 -1 23 -4z m275 0 c-7 -2 -21 -2 -30 0 -10 3 -4 5 12 5 17 0 24 -2 18 -5z
m160 0 c-7 -2 -19 -2 -25 0 -7 3 -2 5 12 5 14 0 19 -2 13 -5z m105 0 c-10 -2
-26 -2 -35 0 -10 3 -2 5 17 5 19 0 27 -2 18 -5z m99 -55 c-13 -32 -46 -56 -34
-24 4 9 2 16 -3 16 -9 0 -60 -98 -60 -115 0 -5 -6 -16 -13 -24 -7 -9 -24 -47
-37 -86 -12 -38 -27 -75 -31 -81 -5 -6 -29 -8 -64 -4 -31 3 -57 4 -60 2 -2 -3
-48 -4 -102 -4 -54 1 -132 1 -173 1 -87 0 -157 0 -220 2 -25 0 -47 0 -50 -1
-3 -1 -32 -1 -65 -1 -272 2 -369 1 -373 -4 -3 -3 -11 0 -18 6 -9 7 -19 6 -36
-3 -13 -7 -24 -14 -26 -14 -2 -1 -5 -24 -7 -50 -3 -35 -2 -42 4 -24 l8 25 10
-25 c11 -28 11 -385 1 -396 -4 -4 -14 -1 -22 5 -17 14 -89 -2 -117 -26 -9 -8
-20 -13 -25 -12 -5 1 -11 0 -14 -1 -15 -5 -47 -11 -62 -11 -10 0 -18 -4 -18
-10 0 -5 -11 -9 -25 -9 -13 0 -28 -6 -32 -13 -4 -8 -18 -16 -31 -19 -12 -4
-20 -2 -16 3 3 5 3 9 0 9 -2 0 -12 3 -22 7 -14 5 -16 2 -10 -23 5 -22 4 -25
-4 -13 -6 10 -7 35 -2 60 4 24 7 146 7 272 -1 180 2 227 12 227 18 0 16 19 -2
26 -12 5 -14 24 -12 100 2 52 1 94 -2 94 -10 0 -6 74 4 91 6 8 18 18 28 22 15
6 17 2 14 -26 -2 -17 -2 -24 0 -14 5 19 29 23 35 5 3 -7 7 -6 11 5 5 12 1 17
-13 17 -11 0 -20 4 -20 10 0 5 19 8 43 7 23 0 49 3 56 8 10 5 16 4 19 -3 2 -7
7 -10 11 -8 17 11 93 17 86 7 -3 -6 0 -9 7 -7 55 17 69 16 78 -6 5 -15 9 -17
9 -7 1 9 7 16 14 17 47 7 267 7 290 1 15 -4 25 -5 23 -1 -2 4 217 7 487 7 496
0 532 2 552 36 15 23 24 6 12 -23z m-27 -58 c0 -6 -6 -13 -14 -16 -8 -3 -12
-13 -9 -25 3 -11 -1 -21 -11 -25 -9 -3 -13 -10 -10 -15 8 -13 -5 -49 -17 -49
-15 0 -1 57 24 103 20 36 37 48 37 27z m-67 -137 c3 -5 -10 -39 -28 -77 -19
-40 -34 -63 -37 -54 -3 7 0 22 7 32 8 10 11 24 8 32 -3 9 1 14 12 14 9 0 16 7
14 18 -3 29 1 42 10 42 6 0 12 -3 14 -7z m367 -777 c0 -2 -7 -6 -15 -10 -8 -3
-15 -1 -15 4 0 6 7 10 15 10 8 0 15 -2 15 -4z m-55 -25 c-14 -13 -168 -91
-180 -91 -6 0 -16 -9 -23 -20 -7 -12 -16 -18 -21 -16 -5 3 -24 -5 -42 -19 -19
-13 -49 -31 -66 -41 -18 -9 -33 -20 -33 -25 0 -5 -9 -9 -19 -9 -10 0 -21 -7
-25 -15 -3 -8 -12 -15 -20 -15 -8 0 -19 -6 -23 -12 -9 -15 -54 -46 -96 -68
-16 -8 -39 -24 -52 -36 -25 -23 -113 -84 -121 -84 -3 0 -12 -7 -20 -15 -9 -8
-24 -15 -35 -15 -10 0 -18 -5 -16 -12 1 -6 -9 -15 -23 -19 -14 -4 -21 -7 -16
-8 13 -1 -62 -51 -77 -51 -7 0 -20 -9 -30 -20 -9 -11 -28 -20 -42 -20 -14 0
-25 -4 -25 -10 0 -5 -6 -10 -14 -10 -8 0 -31 -9 -50 -21 -20 -12 -36 -17 -36
-12 0 6 -17 9 -37 8 -35 -2 -77 15 -79 33 0 4 -5 16 -9 26 -6 13 -5 21 3 24 7
2 9 8 6 14 -7 12 26 89 36 83 3 -2 14 5 24 17 15 17 20 18 27 7 6 -10 9 -10 9
-1 0 6 -1 15 -2 18 -4 8 44 33 63 34 9 0 26 9 39 20 13 11 27 20 31 20 5 0 46
18 91 39 46 22 101 45 123 51 22 7 68 26 102 41 34 16 69 29 76 29 8 0 36 8
63 19 27 10 72 26 99 36 28 9 73 26 100 37 28 11 55 20 62 22 7 1 16 5 19 9 4
4 14 7 23 7 9 0 28 6 42 14 14 7 43 16 65 21 21 4 43 10 49 13 8 6 66 27 85
31 2 1 0 -3 -5 -8z m-1562 -646 c-2 -27 -3 -57 -3 -65 2 -108 -1 -247 -6 -262
-3 -10 0 -25 6 -33 16 -19 5 -46 -15 -39 -9 4 -15 1 -15 -8 0 -18 83 -63 103
-55 9 3 19 2 23 -4 3 -6 10 -6 17 -1 16 12 1028 14 1047 2 8 -5 11 -10 7 -10
-9 0 18 -30 27 -30 3 0 1 11 -4 24 -5 13 -6 26 -3 29 5 6 33 -17 33 -27 0 -3
11 -29 24 -58 13 -29 38 -87 55 -128 18 -41 38 -90 46 -108 8 -18 15 -37 15
-42 0 -16 -38 12 -43 32 -4 13 -11 16 -23 11 -13 -5 -15 -3 -9 7 5 9 4 11 -4
6 -6 -4 -23 -10 -37 -12 -26 -5 -31 -2 -84 50 -11 11 -20 14 -20 8 0 -7 -7 -6
-19 5 -11 9 -18 20 -15 25 3 4 -4 8 -15 8 -12 0 -21 -4 -21 -10 0 -5 5 -9 12
-7 7 1 17 -8 23 -20 5 -13 18 -23 27 -23 10 0 18 -7 18 -15 0 -8 -9 -15 -20
-15 -11 0 -20 4 -20 10 0 6 -9 6 -24 1 -21 -8 -101 -14 -163 -12 -13 1 -23 7
-23 14 0 8 -12 19 -26 25 -22 11 -30 9 -59 -13 -23 -18 -45 -26 -72 -25 -21 1
-47 0 -57 -3 -18 -3 -28 3 -78 50 -14 12 -18 13 -18 3 0 -9 -6 -8 -20 5 -11
10 -17 22 -14 26 3 5 -2 9 -10 9 -8 0 -18 -6 -22 -12 -4 -7 -3 -10 1 -5 10 9
47 -22 39 -34 -3 -5 4 -9 15 -9 12 0 21 -6 21 -14 0 -19 -30 -29 -36 -11 -4
10 -12 12 -30 5 -13 -5 -56 -11 -95 -12 -65 -2 -73 0 -87 20 -8 12 -20 22 -27
22 -8 0 -15 5 -17 11 -2 6 -19 -3 -37 -20 -27 -25 -41 -31 -75 -30 -22 1 -51
-1 -63 -4 -15 -4 -22 0 -26 15 -3 11 -10 17 -16 14 -5 -4 -17 4 -26 16 -11 15
-19 19 -22 11 -3 -10 -8 -10 -19 1 -8 8 -14 19 -14 25 0 6 -9 11 -20 11 -13 0
-20 -6 -19 -17 0 -12 2 -13 6 -5 6 16 33 -3 33 -23 0 -7 9 -15 20 -18 24 -6
26 -22 5 -31 -9 -3 -18 1 -21 8 -4 11 -12 12 -34 4 -41 -14 -80 -6 -97 18 -12
18 -11 23 1 33 11 10 19 7 39 -15 16 -17 27 -22 31 -15 9 14 -1 31 -19 31 -7
0 -15 7 -19 15 -5 13 -10 13 -40 -3 -40 -20 -54 -42 -27 -42 21 0 51 -29 32
-31 -44 -5 -71 0 -71 14 0 6 -14 20 -30 29 -30 17 -30 17 -63 -15 -29 -30 -77
-45 -77 -25 0 5 -9 4 -19 -2 -27 -14 -44 -13 -38 3 2 6 11 11 20 9 8 -1 18 2
22 8 4 6 1 9 -7 8 -7 -2 -13 4 -13 12 0 21 36 25 47 6 5 -9 14 -14 19 -10 5 3
0 16 -13 29 -18 18 -27 21 -46 14 -21 -8 -23 -7 -17 8 4 10 9 70 11 133 5 146
6 160 16 160 4 0 8 7 8 15 0 8 5 15 10 15 6 0 8 10 4 24 -4 17 0 32 15 47 12
13 21 27 21 31 0 5 5 6 12 2 7 -5 9 0 6 14 -3 12 -3 21 1 20 32 -4 41 3 36 30
-5 23 -4 24 5 9 13 -20 32 -14 24 8 -6 16 20 48 30 38 3 -4 6 0 6 8 0 8 21 30
46 49 26 19 57 51 70 71 13 21 32 43 42 51 10 7 22 22 26 33 8 19 9 19 16 -5
4 -14 5 -47 3 -75z m324 -751 c2 -5 -6 -10 -17 -11 -11 -1 -20 4 -20 12 0 15
32 14 37 -1z m550 0 c5 -16 -35 -14 -41 2 -4 10 1 13 16 10 12 -1 23 -7 25
-12z m-1091 -1 c-11 -11 -46 -14 -46 -3 0 6 12 10 27 10 14 0 23 -3 19 -7z"/>
<path d="M1631 3354 c0 -11 3 -14 6 -6 3 7 2 16 -1 19 -3 4 -6 -2 -5 -13z"/>
<path d="M1631 3154 c0 -11 3 -14 6 -6 3 7 2 16 -1 19 -3 4 -6 -2 -5 -13z"/>
<path d="M1954 2129 c-3 -6 -1 -16 5 -22 8 -8 11 -5 11 11 0 24 -5 28 -16 11z"/>
<path d="M1947 2069 c7 -7 15 -10 18 -7 3 3 -2 9 -12 12 -14 6 -15 5 -6 -5z"/>
<path d="M1940 2030 c0 -5 5 -10 10 -10 6 0 10 5 10 10 0 6 -4 10 -10 10 -5 0
-10 -4 -10 -10z"/>
<path d="M1953 1973 c-13 -27 -9 -43 10 -43 8 0 7 4 -2 9 -12 8 -12 12 -2 25
7 8 11 20 9 25 -1 6 -8 -1 -15 -16z"/>
<path d="M1840 1955 c0 -8 5 -15 10 -15 6 0 10 7 10 15 0 8 -4 15 -10 15 -5 0
-10 -7 -10 -15z"/>
<path d="M1770 1945 c0 -5 5 -17 10 -25 5 -8 10 -10 10 -5 0 6 -5 17 -10 25
-5 8 -10 11 -10 5z"/>
<path d="M1953 1893 c-12 -26 -10 -106 3 -110 6 -2 10 20 10 62 -1 36 -2 65
-3 65 -1 0 -6 -8 -10 -17z"/>
<path d="M1670 1802 c0 -5 7 -13 16 -16 10 -4 14 -1 12 6 -5 15 -28 23 -28 10z"/>
<path d="M1710 1781 c0 -6 5 -13 10 -16 6 -3 10 1 10 9 0 9 -4 16 -10 16 -5 0
-10 -4 -10 -9z"/>
<path d="M1870 1774 c0 -8 5 -12 10 -9 6 4 8 11 5 16 -9 14 -15 11 -15 -7z"/>
<path d="M1935 1750 c3 -5 8 -10 11 -10 2 0 4 5 4 10 0 6 -5 10 -11 10 -5 0
-7 -4 -4 -10z"/>
<path d="M1690 1715 c0 -9 6 -12 15 -9 8 4 15 10 15 15 0 5 -7 9 -15 9 -8 0
-15 -7 -15 -15z"/>
<path d="M1761 1693 c3 -20 -2 -25 -16 -13 -12 10 -15 10 -15 -4 0 -9 -7 -16
-16 -16 -17 0 -14 -22 4 -28 7 -2 12 3 12 12 0 10 9 16 25 16 14 0 25 -4 25
-8 0 -13 38 -11 43 2 4 9 -2 11 -19 8 -17 -3 -24 0 -24 11 0 9 -5 19 -10 22
-6 4 -10 3 -9 -2z"/>
<path d="M1640 1680 c0 -5 7 -10 16 -10 8 0 12 5 9 10 -3 6 -10 10 -16 10 -5
0 -9 -4 -9 -10z"/>
<path d="M1750 1616 c0 -9 7 -16 16 -16 17 0 14 22 -4 28 -7 2 -12 -3 -12 -12z"/>
<path d="M3181 1594 c0 -11 3 -14 6 -6 3 7 2 16 -1 19 -3 4 -6 -2 -5 -13z"/>
<path d="M1611 1578 c-1 -10 6 -18 14 -18 8 0 15 5 15 11 0 5 -4 8 -9 5 -5 -4
-12 0 -14 6 -3 8 -6 6 -6 -4z"/>
<path d="M1690 1579 c0 -4 9 -9 20 -12 13 -3 20 0 20 8 0 8 -9 13 -20 12 -11
-1 -20 -4 -20 -8z"/>
<path d="M1627 1522 c-18 -20 -22 -33 -9 -30 4 1 17 -4 30 -11 28 -15 52 -8
52 15 0 13 3 14 15 4 8 -7 15 -21 15 -32 0 -15 5 -19 20 -15 13 3 24 -1 30
-14 6 -10 18 -18 28 -18 16 1 16 2 0 6 -9 2 -21 17 -27 34 -5 16 -15 29 -21
29 -6 0 -8 -4 -5 -10 3 -5 2 -10 -4 -10 -6 0 -13 11 -17 25 -3 14 -10 23 -14
20 -5 -3 -15 2 -23 10 -21 20 -50 19 -70 -3z m47 -17 c19 -14 19 -15 -7 -15
-17 0 -27 5 -27 15 0 19 9 19 34 0z"/>
<path d="M1940 1534 c0 -8 43 -43 53 -44 4 0 7 7 7 15 0 8 -9 15 -20 15 -11 0
-20 5 -20 10 0 6 -4 10 -10 10 -5 0 -10 -3 -10 -6z"/>
<path d="M2181 1526 c-7 -8 -8 -17 -3 -20 6 -3 12 3 15 14 6 24 4 25 -12 6z"/>
<path d="M2226 1517 c3 -10 9 -15 12 -12 3 3 0 11 -7 18 -10 9 -11 8 -5 -6z"/>
<path d="M1780 1511 c0 -5 7 -12 16 -15 22 -9 24 -8 18 9 -7 16 -34 21 -34 6z"/>
<path d="M1896 1511 c-7 -11 12 -26 44 -36 17 -5 22 -4 15 3 -5 5 -19 12 -30
14 -11 2 -19 10 -17 16 2 14 -4 16 -12 3z"/>
<path d="M2330 1510 c0 -5 7 -10 16 -10 8 0 12 5 9 10 -3 6 -10 10 -16 10 -5
0 -9 -4 -9 -10z"/>
<path d="M2522 1509 c2 -7 10 -15 17 -17 8 -3 12 1 9 9 -2 7 -10 15 -17 17 -8
3 -12 -1 -9 -9z"/>
<path d="M3070 1511 c0 -5 7 -11 14 -14 10 -4 13 -1 9 9 -6 15 -23 19 -23 5z"/>
<path d="M2455 1490 c3 -4 14 -10 25 -13 11 -3 18 -2 15 3 -3 4 -14 10 -25 13
-11 3 -18 2 -15 -3z"/>
<path d="M3014 1485 c22 -17 40 -20 32 -6 -3 5 -16 11 -28 14 -22 6 -22 5 -4
-8z"/>
<path d="M2200 1480 c18 -12 30 -13 30 -2 0 4 -10 9 -22 9 -18 2 -20 0 -8 -7z"/>
<path d="M2750 1480 c18 -12 30 -13 30 -2 0 4 -10 9 -22 9 -18 2 -20 0 -8 -7z"/>
<path d="M2296 1470 c-15 -5 -16 -9 -7 -14 7 -5 18 -3 24 3 14 14 6 20 -17 11z"/>
<path d="M1680 1450 c0 -6 7 -10 15 -10 8 0 15 2 15 4 0 2 -7 6 -15 10 -8 3
-15 1 -15 -4z"/>
<path d="M3240 1442 c0 -11 7 -22 15 -26 8 -3 15 -1 15 5 0 6 -7 17 -15 25
-13 14 -15 13 -15 -4z"/>
<path d="M2056 1435 c4 -8 10 -15 15 -15 4 0 6 7 3 15 -4 8 -10 15 -15 15 -4
0 -6 -7 -3 -15z"/>
<path d="M2440 1443 c1 -16 37 -56 49 -52 6 2 -2 16 -19 32 -16 16 -30 25 -30
20z"/>
<path d="M2140 1433 c0 -6 -9 -13 -20 -16 -25 -7 -26 -27 -1 -27 17 0 37 37
26 49 -3 2 -5 0 -5 -6z"/>
<path d="M2160 1429 c0 -5 4 -8 9 -4 6 3 14 -3 20 -12 5 -10 13 -15 16 -11 9
8 -19 38 -34 38 -6 0 -11 -5 -11 -11z"/>
<path d="M2398 1423 c-27 -7 -29 -30 -3 -35 17 -4 22 -1 18 10 -3 8 0 18 8 23
14 9 6 10 -23 2z"/>
<path d="M2673 1420 c-28 -11 -30 -30 -4 -30 10 0 21 9 24 20 3 11 4 20 4 19
-1 0 -12 -4 -24 -9z"/>
<path d="M2939 1410 l-24 -19 23 -1 c12 0 22 6 22 14 0 8 6 17 13 19 8 4 8 6
1 6 -7 1 -22 -8 -35 -19z"/>
<path d="M2740 1410 c0 -5 5 -10 11 -10 5 0 7 5 4 10 -3 6 -8 10 -11 10 -2 0
-4 -4 -4 -10z"/>
<path d="M3010 1410 c0 -12 28 -25 36 -17 3 3 -4 10 -15 17 -15 7 -21 7 -21 0z"/>
<path d="M3206 1405 c-3 -9 0 -15 9 -15 8 0 15 7 15 15 0 8 -4 15 -9 15 -5 0
-11 -7 -15 -15z"/>
<path d="M3260 1390 c0 -5 5 -10 11 -10 5 0 7 5 4 10 -3 6 -8 10 -11 10 -2 0
-4 -4 -4 -10z"/>
</g>
</svg>
